<svg class="s3lukxi-1 flozKl" xmlns="http://www.w3.org/2000/svg" width="112" height="20" viewBox="0 0 130 21">
    <polygon points="11.8 11.55 7.48 1.05 0 1.05 8.73 20.34 14.66 20.34 23.6 1.05 16.12 1.05 11.8 11.55"></polygon>
    <path d="M44,5.47a3.27,3.27,0,0,0-3.27-3.26h-16V21.49h6.52V13.35l8.14,8.14H44V16.87L35.84,8.73h4.87A3.27,3.27,0,0,0,44,5.47Z" transform="translate(-0.55 -1.15)"></path>
    <path d="M54.72,1.15a10.7,10.7,0,1,0,10.75,10.7A10.73,10.73,0,0,0,54.72,1.15Zm0,15.27a4.45,4.45,0,0,1-4.31-4.57,4.32,4.32,0,1,1,8.63,0A4.46,4.46,0,0,1,54.72,16.42Z" transform="translate(-0.55 -1.15)"></path>
    <path d="M77.07,1.15a10.7,10.7,0,1,0,10.74,10.7A10.74,10.74,0,0,0,77.07,1.15Zm0,15.27a4.46,4.46,0,0,1-4.32-4.57,4.32,4.32,0,1,1,8.63,0A4.45,4.45,0,0,1,77.07,16.42Z" transform="translate(-0.55 -1.15)"></path>
    <polygon points="101.98 10.29 94.75 1.05 88.42 1.05 88.42 20.34 94.95 20.34 94.95 11.1 102.18 20.34 108.51 20.34 108.51 1.05 101.98 1.05 101.98 10.29"></polygon>
    <path d="M121,22.54c5.54,0,10-4.8,10-10.69a10.75,10.75,0,0,0-.16-1.9H120.6v4.32h4.26a4.07,4.07,0,0,1-3.74,2.16,4.36,4.36,0,0,1-3.25-1.36,4.52,4.52,0,0,1-1.34-3.28,4.63,4.63,0,0,1,1.27-3.28,4.13,4.13,0,0,1,3.11-1.36,4.28,4.28,0,0,1,2.12.56,5.08,5.08,0,0,1,1,.74l5.28-3.38a10.67,10.67,0,0,0-2.88-2.44,10.56,10.56,0,0,0-5.48-1.48,10.27,10.27,0,0,0-7.6,3.17,10.4,10.4,0,0,0-3.11,7.53h0A10.73,10.73,0,0,0,121,22.54Z" transform="translate(-0.55 -1.15)"></path>
</svg>